<svg xmlns="http://www.w3.org/2000/svg" viewBox="0 0 512 512">
  <rect width="512" height="512" rx="80" fill="#4ab8e8"/>
  <rect x="60" y="420" width="392" height="40" rx="14" fill="#d4881a"/>
  <rect x="60" y="400" width="392" height="28" rx="10" fill="#f0b040"/>
  <rect x="140" y="60" width="48" height="364" rx="14" fill="#d4881a"/>
  <rect x="148" y="62" width="24" height="358" rx="10" fill="#f0b040"/>
  <rect x="136" y="56" width="280" height="48" rx="14" fill="#d4881a"/>
  <rect x="144" y="64" width="264" height="24" rx="10" fill="#f0b040"/>
  <line x1="188" y1="100" x2="280" y2="200" stroke="#9a5808" stroke-width="30" stroke-linecap="round"/>
  <line x1="190" y1="102" x2="278" y2="198" stroke="#d4881a" stroke-width="20" stroke-linecap="round"/>
  <line x1="378" y1="80" x2="378" y2="148" stroke="#c8a060" stroke-width="14" stroke-linecap="round"/>
  <circle cx="378" cy="158" r="18" fill="none" stroke="#d4a832" stroke-width="10"/>
  <circle cx="378" cy="200" r="38" fill="#1a1a2e"/>
  <circle cx="378" cy="200" r="38" fill="none" stroke="rgba(80,80,120,.4)" stroke-width="4"/>
  <line x1="364" y1="192" x2="372" y2="200" stroke="#e0e0ff" stroke-width="7" stroke-linecap="round"/>
  <line x1="372" y1="192" x2="364" y2="200" stroke="#e0e0ff" stroke-width="7" stroke-linecap="round"/>
  <line x1="384" y1="192" x2="392" y2="200" stroke="#e0e0ff" stroke-width="7" stroke-linecap="round"/>
  <line x1="392" y1="192" x2="384" y2="200" stroke="#e0e0ff" stroke-width="7" stroke-linecap="round"/>
  <path d="M368 210 Q378 220 388 210" fill="none" stroke="#e0e0ff" stroke-width="5" stroke-linecap="round"/>
  <rect x="370" y="237" width="16" height="10" rx="6" fill="#c8a060"/>
  <rect x="364" y="246" width="28" height="52" rx="14" fill="#1a1a2e"/>
  <line x1="364" y1="260" x2="340" y2="284" stroke="#1a1a2e" stroke-width="18" stroke-linecap="round"/>
  <line x1="392" y1="260" x2="416" y2="284" stroke="#1a1a2e" stroke-width="18" stroke-linecap="round"/>
  <line x1="370" y1="296" x2="358" y2="330" stroke="#1a1a2e" stroke-width="18" stroke-linecap="round"/>
  <line x1="386" y1="296" x2="398" y2="330" stroke="#1a1a2e" stroke-width="18" stroke-linecap="round"/>
</svg>
